# File generated by ImageToStl.com - Free Image and 3D model conversion tools

mtllib Verdad+Round+White+Marble+Coffee+Table.mtl

o obj1
v -23.82411003 -2.90030456 1.5
v -23.55431938 4.60370159 1.5
v -23.98450279 0.86231506 1.5
v -23.07708931 -6.59150887 1.5
v -22.54414749 8.23172951 1.5
v -21.76183128 -10.12040806 1.5
v -20.97886658 11.65706539 1.5
v -19.91072655 -13.40011024 1.5
v -18.89701462 14.79536533 1.5
v -17.5693531 -16.34985542 1.5
v -16.34985542 17.5693531 1.5
v -14.79536533 -18.89701462 1.5
v -13.40011024 19.91072655 1.5
v -11.65706539 -20.97886658 1.5
v -10.12040806 21.76183128 1.5
v -8.23172951 -22.54414749 1.5
v -6.59150887 23.07708931 1.5
v -4.60370159 -23.55431938 1.5
v -2.90030456 23.82411003 1.5
v -0.86231506 -23.98450279 1.5
v 0.86231506 23.98450279 1.5
v 2.90030456 -23.82411003 1.5
v 4.60370159 23.55431938 1.5
v 6.59150887 -23.07708931 1.5
v 8.23172951 22.54414749 1.5
v 10.12040806 -21.76183128 1.5
v 11.65706539 20.97886658 1.5
v 13.40011024 -19.91072655 1.5
v 14.79536533 18.89701462 1.5
v 16.34985542 -17.5693531 1.5
v 17.5693531 16.34985542 1.5
v 18.89701462 -14.79536533 1.5
v 19.91072655 13.40011024 1.5
v 20.97886658 -11.65706539 1.5
v 21.76183128 10.12040806 1.5
v 22.54414749 -8.23172951 1.5
v 23.07708931 6.59150887 1.5
v 23.55431938 -4.60370159 1.5
v 23.82411003 2.90030456 1.5
v 23.98450279 -0.86231506 1.5
usemtl mat0
f 1 2 3
f 2 1 4
f 2 4 5
f 5 4 6
f 5 6 7
f 7 6 8
f 7 8 9
f 9 8 10
f 9 10 11
f 11 10 12
f 11 12 13
f 13 12 14
f 13 14 15
f 15 14 16
f 15 16 17
f 17 16 18
f 17 18 19
f 19 18 20
f 19 20 21
f 21 20 22
f 21 22 23
f 23 22 24
f 23 24 25
f 25 24 26
f 25 26 27
f 27 26 28
f 27 28 29
f 29 28 30
f 29 30 31
f 31 30 32
f 31 32 33
f 33 32 34
f 33 34 35
f 35 34 36
f 35 36 37
f 37 36 38
f 37 38 39
f 39 38 40
# Vertices: 40, normals: 0, texture coordinates: 0, faces: 38

o obj2
v -23.07115746 4.50926733 0
v -23.33541489 -2.84081149 0
v -23.49251747 0.84462667 0
v -22.6037159 -6.4562993 0
v -22.081707 8.06287479 0
v -21.31543922 -9.91281223 0
v -20.54853439 11.41794777 0
v -19.50230408 -13.12523746 0
v -18.50938606 14.49187279 0
v -17.20895958 -16.01447678 0
v -16.01447678 17.20895958 0
v -14.49187279 -18.50938606 0
v -13.12523746 19.50230408 0
v -11.41794777 -20.54853439 0
v -9.91281223 21.31543922 0
v -8.06287479 -22.081707 0
v -6.4562993 22.6037159 0
v -4.50926733 -23.07115746 0
v -2.84081149 23.33541489 0
v -0.84462667 -23.49251747 0
v 0.84462667 23.49251747 0
v 2.84081149 -23.33541489 0
v 4.50926733 23.07115746 0
v 6.4562993 -22.6037159 0
v 8.06287479 22.081707 0
v 9.91281223 -21.31543922 0
v 11.41794777 20.54853439 0
v 13.12523746 -19.50230408 0
v 14.49187279 18.50938606 0
v 16.01447678 -17.20895958 0
v 17.20895958 16.01447678 0
v 18.50938606 -14.49187279 0
v 19.50230408 13.12523746 0
v 20.54853439 -11.41794777 0
v 21.31543922 9.91281223 0
v 22.081707 -8.06287479 0
v 22.6037159 6.4562993 0
v 23.07115746 -4.50926733 0
v 23.33541489 2.84081149 0
v 23.49251747 -0.84462667 0
usemtl mat0
f 41 42 43
f 42 41 44
f 44 41 45
f 44 45 46
f 46 45 47
f 46 47 48
f 48 47 49
f 48 49 50
f 50 49 51
f 50 51 52
f 52 51 53
f 52 53 54
f 54 53 55
f 54 55 56
f 56 55 57
f 56 57 58
f 58 57 59
f 58 59 60
f 60 59 61
f 60 61 62
f 62 61 63
f 62 63 64
f 64 63 65
f 64 65 66
f 66 65 67
f 66 67 68
f 68 67 69
f 68 69 70
f 70 69 71
f 70 71 72
f 72 71 73
f 72 73 74
f 74 73 75
f 74 75 76
f 76 75 77
f 76 77 78
f 78 77 79
f 78 79 80
# Vertices: 40, normals: 0, texture coordinates: 0, faces: 38

o obj3
v 6.59150887 -23.07708931 1.5
v 2.84081149 -23.33541489 0
v 6.4562993 -22.6037159 0
usemtl mat0
f 81 82 83
# Vertices: 3, normals: 0, texture coordinates: 0, faces: 1

o obj4
v 2.90030456 -23.82411003 1.5
v 2.84081149 -23.33541489 0
v 6.59150887 -23.07708931 1.5
usemtl mat0
f 84 85 86
# Vertices: 3, normals: 0, texture coordinates: 0, faces: 1

o obj5
v -11.65706539 -20.97886658 1.5
v -14.49187279 -18.50938606 0
v -11.41794777 -20.54853439 0
usemtl mat0
f 87 88 89
# Vertices: 3, normals: 0, texture coordinates: 0, faces: 1

o obj6
v -14.79536533 -18.89701462 1.5
v -14.49187279 -18.50938606 0
v -11.65706539 -20.97886658 1.5
usemtl mat0
f 90 91 92
# Vertices: 3, normals: 0, texture coordinates: 0, faces: 1

o obj7
v 13.40011024 -19.91072655 1.5
v 9.91281223 -21.31543922 0
v 13.12523746 -19.50230408 0
usemtl mat0
f 93 94 95
# Vertices: 3, normals: 0, texture coordinates: 0, faces: 1

o obj8
v 10.12040806 -21.76183128 1.5
v 9.91281223 -21.31543922 0
v 13.40011024 -19.91072655 1.5
usemtl mat0
f 96 97 98
# Vertices: 3, normals: 0, texture coordinates: 0, faces: 1

o obj9
v -14.79536533 -18.89701462 1.5
v -17.20895958 -16.01447678 0
v -14.49187279 -18.50938606 0
usemtl mat0
f 99 100 101
# Vertices: 3, normals: 0, texture coordinates: 0, faces: 1

o obj10
v -17.5693531 -16.34985542 1.5
v -17.20895958 -16.01447678 0
v -14.79536533 -18.89701462 1.5
usemtl mat0
f 102 103 104
# Vertices: 3, normals: 0, texture coordinates: 0, faces: 1

o obj11
v -4.60370159 -23.55431938 1.5
v -8.06287479 -22.081707 0
v -4.50926733 -23.07115746 0
usemtl mat0
f 105 106 107
# Vertices: 3, normals: 0, texture coordinates: 0, faces: 1

o obj12
v -8.23172951 -22.54414749 1.5
v -8.06287479 -22.081707 0
v -4.60370159 -23.55431938 1.5
usemtl mat0
f 108 109 110
# Vertices: 3, normals: 0, texture coordinates: 0, faces: 1

o obj13
v -8.23172951 -22.54414749 1.5
v -11.41794777 -20.54853439 0
v -8.06287479 -22.081707 0
usemtl mat0
f 111 112 113
# Vertices: 3, normals: 0, texture coordinates: 0, faces: 1

o obj14
v -11.65706539 -20.97886658 1.5
v -11.41794777 -20.54853439 0
v -8.23172951 -22.54414749 1.5
usemtl mat0
f 114 115 116
# Vertices: 3, normals: 0, texture coordinates: 0, faces: 1

o obj15
v 10.12040806 -21.76183128 1.5
v 6.4562993 -22.6037159 0
v 9.91281223 -21.31543922 0
usemtl mat0
f 117 118 119
# Vertices: 3, normals: 0, texture coordinates: 0, faces: 1

o obj16
v 6.59150887 -23.07708931 1.5
v 6.4562993 -22.6037159 0
v 10.12040806 -21.76183128 1.5
usemtl mat0
f 120 121 122
# Vertices: 3, normals: 0, texture coordinates: 0, faces: 1

o obj17
v 2.90030456 -23.82411003 1.5
v -0.84462667 -23.49251747 0
v 2.84081149 -23.33541489 0
usemtl mat0
f 123 124 125
# Vertices: 3, normals: 0, texture coordinates: 0, faces: 1

o obj18
v -0.86231506 -23.98450279 1.5
v -0.84462667 -23.49251747 0
v 2.90030456 -23.82411003 1.5
usemtl mat0
f 126 127 128
# Vertices: 3, normals: 0, texture coordinates: 0, faces: 1

o obj19
v -0.86231506 -23.98450279 1.5
v -4.50926733 -23.07115746 0
v -0.84462667 -23.49251747 0
usemtl mat0
f 129 130 131
# Vertices: 3, normals: 0, texture coordinates: 0, faces: 1

o obj20
v -4.60370159 -23.55431938 1.5
v -4.50926733 -23.07115746 0
v -0.86231506 -23.98450279 1.5
usemtl mat0
f 132 133 134
# Vertices: 3, normals: 0, texture coordinates: 0, faces: 1

o obj21
v -19.91072655 -13.40011024 1.5
v -17.20895958 -16.01447678 0
v -17.5693531 -16.34985542 1.5
usemtl mat0
f 135 136 137
# Vertices: 3, normals: 0, texture coordinates: 0, faces: 1

o obj22
v -19.50230408 -13.12523746 0
v -17.20895958 -16.01447678 0
v -19.91072655 -13.40011024 1.5
usemtl mat0
f 138 139 140
# Vertices: 3, normals: 0, texture coordinates: 0, faces: 1

o obj23
v -21.76183128 -10.12040806 1.5
v -19.50230408 -13.12523746 0
v -19.91072655 -13.40011024 1.5
usemtl mat0
f 141 142 143
# Vertices: 3, normals: 0, texture coordinates: 0, faces: 1

o obj24
v -21.31543922 -9.91281223 0
v -19.50230408 -13.12523746 0
v -21.76183128 -10.12040806 1.5
usemtl mat0
f 144 145 146
# Vertices: 3, normals: 0, texture coordinates: 0, faces: 1

o obj25
v -23.07708931 -6.59150887 1.5
v -21.31543922 -9.91281223 0
v -21.76183128 -10.12040806 1.5
usemtl mat0
f 147 148 149
# Vertices: 3, normals: 0, texture coordinates: 0, faces: 1

o obj26
v -22.6037159 -6.4562993 0
v -21.31543922 -9.91281223 0
v -23.07708931 -6.59150887 1.5
usemtl mat0
f 150 151 152
# Vertices: 3, normals: 0, texture coordinates: 0, faces: 1

o obj27
v -23.98450279 0.86231506 1.5
v -23.33541489 -2.84081149 0
v -23.82411003 -2.90030456 1.5
usemtl mat0
f 153 154 155
# Vertices: 3, normals: 0, texture coordinates: 0, faces: 1

o obj28
v -23.98450279 0.86231506 1.5
v -23.49251747 0.84462667 0
v -23.33541489 -2.84081149 0
usemtl mat0
f 156 157 158
# Vertices: 3, normals: 0, texture coordinates: 0, faces: 1

o obj29
v 4.60370159 23.55431938 1.5
v 8.06287479 22.081707 0
v 4.50926733 23.07115746 0
usemtl mat0
f 159 160 161
# Vertices: 3, normals: 0, texture coordinates: 0, faces: 1

o obj30
v 8.23172951 22.54414749 1.5
v 8.06287479 22.081707 0
v 4.60370159 23.55431938 1.5
usemtl mat0
f 162 163 164
# Vertices: 3, normals: 0, texture coordinates: 0, faces: 1

o obj31
v 8.23172951 22.54414749 1.5
v 11.41794777 20.54853439 0
v 8.06287479 22.081707 0
usemtl mat0
f 165 166 167
# Vertices: 3, normals: 0, texture coordinates: 0, faces: 1

o obj32
v 11.65706539 20.97886658 1.5
v 11.41794777 20.54853439 0
v 8.23172951 22.54414749 1.5
usemtl mat0
f 168 169 170
# Vertices: 3, normals: 0, texture coordinates: 0, faces: 1

o obj33
v 14.79536533 18.89701462 1.5
v 17.20895958 16.01447678 0
v 14.49187279 18.50938606 0
usemtl mat0
f 171 172 173
# Vertices: 3, normals: 0, texture coordinates: 0, faces: 1

o obj34
v 17.5693531 16.34985542 1.5
v 17.20895958 16.01447678 0
v 14.79536533 18.89701462 1.5
usemtl mat0
f 174 175 176
# Vertices: 3, normals: 0, texture coordinates: 0, faces: 1

o obj35
v -22.54414749 8.23172951 1.5
v -23.07115746 4.50926733 0
v -23.55431938 4.60370159 1.5
usemtl mat0
f 177 178 179
# Vertices: 3, normals: 0, texture coordinates: 0, faces: 1

o obj36
v -22.54414749 8.23172951 1.5
v -22.081707 8.06287479 0
v -23.07115746 4.50926733 0
usemtl mat0
f 180 181 182
# Vertices: 3, normals: 0, texture coordinates: 0, faces: 1

o obj37
v -2.90030456 23.82411003 1.5
v 0.84462667 23.49251747 0
v -2.84081149 23.33541489 0
usemtl mat0
f 183 184 185
# Vertices: 3, normals: 0, texture coordinates: 0, faces: 1

o obj38
v 0.86231506 23.98450279 1.5
v 0.84462667 23.49251747 0
v -2.90030456 23.82411003 1.5
usemtl mat0
f 186 187 188
# Vertices: 3, normals: 0, texture coordinates: 0, faces: 1

o obj39
v 19.50230408 13.12523746 0
v 21.76183128 10.12040806 1.5
v 21.31543922 9.91281223 0
usemtl mat0
f 189 190 191
# Vertices: 3, normals: 0, texture coordinates: 0, faces: 1

o obj40
v 19.91072655 13.40011024 1.5
v 21.76183128 10.12040806 1.5
v 19.50230408 13.12523746 0
usemtl mat0
f 192 193 194
# Vertices: 3, normals: 0, texture coordinates: 0, faces: 1

o obj41
v -10.12040806 21.76183128 1.5
v -6.4562993 22.6037159 0
v -9.91281223 21.31543922 0
usemtl mat0
f 195 196 197
# Vertices: 3, normals: 0, texture coordinates: 0, faces: 1

o obj42
v -6.59150887 23.07708931 1.5
v -6.4562993 22.6037159 0
v -10.12040806 21.76183128 1.5
usemtl mat0
f 198 199 200
# Vertices: 3, normals: 0, texture coordinates: 0, faces: 1

o obj43
v -20.97886658 11.65706539 1.5
v -22.081707 8.06287479 0
v -22.54414749 8.23172951 1.5
usemtl mat0
f 201 202 203
# Vertices: 3, normals: 0, texture coordinates: 0, faces: 1

o obj44
v -20.97886658 11.65706539 1.5
v -20.54853439 11.41794777 0
v -22.081707 8.06287479 0
usemtl mat0
f 204 205 206
# Vertices: 3, normals: 0, texture coordinates: 0, faces: 1

o obj45
v -23.82411003 -2.90030456 1.5
v -22.6037159 -6.4562993 0
v -23.07708931 -6.59150887 1.5
usemtl mat0
f 207 208 209
# Vertices: 3, normals: 0, texture coordinates: 0, faces: 1

o obj46
v -23.33541489 -2.84081149 0
v -22.6037159 -6.4562993 0
v -23.82411003 -2.90030456 1.5
usemtl mat0
f 210 211 212
# Vertices: 3, normals: 0, texture coordinates: 0, faces: 1

o obj47
v 0.86231506 23.98450279 1.5
v 4.50926733 23.07115746 0
v 0.84462667 23.49251747 0
usemtl mat0
f 213 214 215
# Vertices: 3, normals: 0, texture coordinates: 0, faces: 1

o obj48
v 4.60370159 23.55431938 1.5
v 4.50926733 23.07115746 0
v 0.86231506 23.98450279 1.5
usemtl mat0
f 216 217 218
# Vertices: 3, normals: 0, texture coordinates: 0, faces: 1

o obj49
v 21.31543922 9.91281223 0
v 23.07708931 6.59150887 1.5
v 22.6037159 6.4562993 0
usemtl mat0
f 219 220 221
# Vertices: 3, normals: 0, texture coordinates: 0, faces: 1

o obj50
v 21.76183128 10.12040806 1.5
v 23.07708931 6.59150887 1.5
v 21.31543922 9.91281223 0
usemtl mat0
f 222 223 224
# Vertices: 3, normals: 0, texture coordinates: 0, faces: 1

o obj51
v 11.65706539 20.97886658 1.5
v 14.49187279 18.50938606 0
v 11.41794777 20.54853439 0
usemtl mat0
f 225 226 227
# Vertices: 3, normals: 0, texture coordinates: 0, faces: 1

o obj52
v 14.79536533 18.89701462 1.5
v 14.49187279 18.50938606 0
v 11.65706539 20.97886658 1.5
usemtl mat0
f 228 229 230
# Vertices: 3, normals: 0, texture coordinates: 0, faces: 1

o obj53
v -18.89701462 14.79536533 1.5
v -20.54853439 11.41794777 0
v -20.97886658 11.65706539 1.5
usemtl mat0
f 231 232 233
# Vertices: 3, normals: 0, texture coordinates: 0, faces: 1

o obj54
v -18.89701462 14.79536533 1.5
v -18.50938606 14.49187279 0
v -20.54853439 11.41794777 0
usemtl mat0
f 234 235 236
# Vertices: 3, normals: 0, texture coordinates: 0, faces: 1

o obj55
v 22.081707 -8.06287479 0
v 20.97886658 -11.65706539 1.5
v 20.54853439 -11.41794777 0
usemtl mat0
f 237 238 239
# Vertices: 3, normals: 0, texture coordinates: 0, faces: 1

o obj56
v 22.081707 -8.06287479 0
v 22.54414749 -8.23172951 1.5
v 20.97886658 -11.65706539 1.5
usemtl mat0
f 240 241 242
# Vertices: 3, normals: 0, texture coordinates: 0, faces: 1

o obj57
v 20.54853439 -11.41794777 0
v 18.89701462 -14.79536533 1.5
v 18.50938606 -14.49187279 0
usemtl mat0
f 243 244 245
# Vertices: 3, normals: 0, texture coordinates: 0, faces: 1

o obj58
v 20.54853439 -11.41794777 0
v 20.97886658 -11.65706539 1.5
v 18.89701462 -14.79536533 1.5
usemtl mat0
f 246 247 248
# Vertices: 3, normals: 0, texture coordinates: 0, faces: 1

o obj59
v -6.59150887 23.07708931 1.5
v -2.84081149 23.33541489 0
v -6.4562993 22.6037159 0
usemtl mat0
f 249 250 251
# Vertices: 3, normals: 0, texture coordinates: 0, faces: 1

o obj60
v -2.90030456 23.82411003 1.5
v -2.84081149 23.33541489 0
v -6.59150887 23.07708931 1.5
usemtl mat0
f 252 253 254
# Vertices: 3, normals: 0, texture coordinates: 0, faces: 1

o obj61
v -23.55431938 4.60370159 1.5
v -23.49251747 0.84462667 0
v -23.98450279 0.86231506 1.5
usemtl mat0
f 255 256 257
# Vertices: 3, normals: 0, texture coordinates: 0, faces: 1

o obj62
v -23.55431938 4.60370159 1.5
v -23.07115746 4.50926733 0
v -23.49251747 0.84462667 0
usemtl mat0
f 258 259 260
# Vertices: 3, normals: 0, texture coordinates: 0, faces: 1

o obj63
v 22.6037159 6.4562993 0
v 23.82411003 2.90030456 1.5
v 23.33541489 2.84081149 0
usemtl mat0
f 261 262 263
# Vertices: 3, normals: 0, texture coordinates: 0, faces: 1

o obj64
v 23.07708931 6.59150887 1.5
v 23.82411003 2.90030456 1.5
v 22.6037159 6.4562993 0
usemtl mat0
f 264 265 266
# Vertices: 3, normals: 0, texture coordinates: 0, faces: 1

o obj65
v 23.49251747 -0.84462667 0
v 23.55431938 -4.60370159 1.5
v 23.07115746 -4.50926733 0
usemtl mat0
f 267 268 269
# Vertices: 3, normals: 0, texture coordinates: 0, faces: 1

o obj66
v 23.49251747 -0.84462667 0
v 23.98450279 -0.86231506 1.5
v 23.55431938 -4.60370159 1.5
usemtl mat0
f 270 271 272
# Vertices: 3, normals: 0, texture coordinates: 0, faces: 1

o obj67
v 23.07115746 -4.50926733 0
v 22.54414749 -8.23172951 1.5
v 22.081707 -8.06287479 0
usemtl mat0
f 273 274 275
# Vertices: 3, normals: 0, texture coordinates: 0, faces: 1

o obj68
v 23.07115746 -4.50926733 0
v 23.55431938 -4.60370159 1.5
v 22.54414749 -8.23172951 1.5
usemtl mat0
f 276 277 278
# Vertices: 3, normals: 0, texture coordinates: 0, faces: 1

o obj69
v 17.20895958 16.01447678 0
v 19.91072655 13.40011024 1.5
v 19.50230408 13.12523746 0
usemtl mat0
f 279 280 281
# Vertices: 3, normals: 0, texture coordinates: 0, faces: 1

o obj70
v 17.5693531 16.34985542 1.5
v 19.91072655 13.40011024 1.5
v 17.20895958 16.01447678 0
usemtl mat0
f 282 283 284
# Vertices: 3, normals: 0, texture coordinates: 0, faces: 1

o obj71
v 18.50938606 -14.49187279 0
v 16.34985542 -17.5693531 1.5
v 16.01447678 -17.20895958 0
usemtl mat0
f 285 286 287
# Vertices: 3, normals: 0, texture coordinates: 0, faces: 1

o obj72
v 18.50938606 -14.49187279 0
v 18.89701462 -14.79536533 1.5
v 16.34985542 -17.5693531 1.5
usemtl mat0
f 288 289 290
# Vertices: 3, normals: 0, texture coordinates: 0, faces: 1

o obj73
v 16.34985542 -17.5693531 1.5
v 13.12523746 -19.50230408 0
v 16.01447678 -17.20895958 0
usemtl mat0
f 291 292 293
# Vertices: 3, normals: 0, texture coordinates: 0, faces: 1

o obj74
v 13.40011024 -19.91072655 1.5
v 13.12523746 -19.50230408 0
v 16.34985542 -17.5693531 1.5
usemtl mat0
f 294 295 296
# Vertices: 3, normals: 0, texture coordinates: 0, faces: 1

o obj75
v -16.34985542 17.5693531 1.5
v -18.50938606 14.49187279 0
v -18.89701462 14.79536533 1.5
usemtl mat0
f 297 298 299
# Vertices: 3, normals: 0, texture coordinates: 0, faces: 1

o obj76
v -16.34985542 17.5693531 1.5
v -16.01447678 17.20895958 0
v -18.50938606 14.49187279 0
usemtl mat0
f 300 301 302
# Vertices: 3, normals: 0, texture coordinates: 0, faces: 1

o obj77
v -16.34985542 17.5693531 1.5
v -13.12523746 19.50230408 0
v -16.01447678 17.20895958 0
usemtl mat0
f 303 304 305
# Vertices: 3, normals: 0, texture coordinates: 0, faces: 1

o obj78
v -13.40011024 19.91072655 1.5
v -13.12523746 19.50230408 0
v -16.34985542 17.5693531 1.5
usemtl mat0
f 306 307 308
# Vertices: 3, normals: 0, texture coordinates: 0, faces: 1

o obj79
v -13.40011024 19.91072655 1.5
v -9.91281223 21.31543922 0
v -13.12523746 19.50230408 0
usemtl mat0
f 309 310 311
# Vertices: 3, normals: 0, texture coordinates: 0, faces: 1

o obj80
v -10.12040806 21.76183128 1.5
v -9.91281223 21.31543922 0
v -13.40011024 19.91072655 1.5
usemtl mat0
f 312 313 314
# Vertices: 3, normals: 0, texture coordinates: 0, faces: 1

o obj81
v 23.33541489 2.84081149 0
v 23.98450279 -0.86231506 1.5
v 23.49251747 -0.84462667 0
usemtl mat0
f 315 316 317
# Vertices: 3, normals: 0, texture coordinates: 0, faces: 1

o obj82
v 23.82411003 2.90030456 1.5
v 23.98450279 -0.86231506 1.5
v 23.33541489 2.84081149 0
usemtl mat0
f 318 319 320
# Vertices: 3, normals: 0, texture coordinates: 0, faces: 1

o obj83
v 0.25 17.5 -13.5
v 0.25 16.05848122 -11.5
v 0.25 -17.5 -13.5
v 0.25 22 -0
v 0.25 19.89181519 -0
v 0.25 -16.05848122 -11.5
v 0.25 -22 -0
v 0.25 -19.89181519 -0
usemtl mat0
f 321 322 323
f 322 321 324
f 322 324 325
f 323 326 327
f 326 323 322
f 327 326 328
# Vertices: 8, normals: 0, texture coordinates: 0, faces: 6

o obj84
v -0.25 -17.5 -13.5
v -0.25 -16.05848122 -11.5
v -0.25 17.5 -13.5
v -0.25 -22 -0
v -0.25 -19.89181519 -0
v -0.25 16.05848122 -11.5
v -0.25 22 -0
v -0.25 19.89181519 -0
usemtl mat0
f 329 330 331
f 330 329 332
f 330 332 333
f 331 334 335
f 334 331 330
f 335 334 336
# Vertices: 8, normals: 0, texture coordinates: 0, faces: 6

o obj85
v -0.25 -16.05848122 -11.5
v 0.25 -19.89181519 -0
v 0.25 -16.05848122 -11.5
v -0.25 -19.89181519 -0
usemtl mat0
f 337 338 339
f 338 337 340
# Vertices: 4, normals: 0, texture coordinates: 0, faces: 2

o obj86
v 0.25 -19.89181519 -0
v -0.25 -22 -0
v 0.25 -22 -0
v -0.25 -19.89181519 -0
usemtl mat0
f 341 342 343
f 342 341 344
# Vertices: 4, normals: 0, texture coordinates: 0, faces: 2

o obj87
v -0.25 -22 -0
v 0.25 -17.5 -13.5
v 0.25 -22 -0
v -0.25 -17.5 -13.5
usemtl mat0
f 345 346 347
f 346 345 348
# Vertices: 4, normals: 0, texture coordinates: 0, faces: 2

o obj88
v -0.25 17.5 -13.5
v 0.25 -17.5 -13.5
v -0.25 -17.5 -13.5
v 0.25 17.5 -13.5
usemtl mat0
f 349 350 351
f 350 349 352
# Vertices: 4, normals: 0, texture coordinates: 0, faces: 2

o obj89
v -0.25 17.5 -13.5
v 0.25 22 -0
v 0.25 17.5 -13.5
v -0.25 22 -0
usemtl mat0
f 353 354 355
f 354 353 356
# Vertices: 4, normals: 0, texture coordinates: 0, faces: 2

o obj90
v 0.25 22 -0
v -0.25 19.89181519 -0
v 0.25 19.89181519 -0
v -0.25 22 -0
usemtl mat0
f 357 358 359
f 358 357 360
# Vertices: 4, normals: 0, texture coordinates: 0, faces: 2

o obj91
v -0.25 19.89181519 -0
v 0.25 16.05848122 -11.5
v 0.25 19.89181519 -0
v -0.25 16.05848122 -11.5
usemtl mat0
f 361 362 363
f 362 361 364
# Vertices: 4, normals: 0, texture coordinates: 0, faces: 2

o obj92
v 0.25 16.05848122 -11.5
v -0.25 -16.05848122 -11.5
v 0.25 -16.05848122 -11.5
v -0.25 16.05848122 -11.5
usemtl mat0
f 365 366 367
f 366 365 368
# Vertices: 4, normals: 0, texture coordinates: 0, faces: 2

o obj93
v 17.5 -0.25 -13.5
v 16.05848122 -0.25 -11.5
v -17.5 -0.25 -13.5
v 22 -0.25 -0
v 19.89181519 -0.25 -0
v -16.05848122 -0.25 -11.5
v -22 -0.25 -0
v -19.89181519 -0.25 -0
usemtl mat0
f 369 370 371
f 370 369 372
f 370 372 373
f 371 374 375
f 374 371 370
f 375 374 376
# Vertices: 8, normals: 0, texture coordinates: 0, faces: 6

o obj94
v -17.5 0.25 -13.5
v -16.05848122 0.25 -11.5
v 17.5 0.25 -13.5
v -22 0.25 -0
v -19.89181519 0.25 -0
v 16.05848122 0.25 -11.5
v 22 0.25 -0
v 19.89181519 0.25 -0
usemtl mat0
f 377 378 379
f 378 377 380
f 378 380 381
f 379 382 383
f 382 379 378
f 383 382 384
# Vertices: 8, normals: 0, texture coordinates: 0, faces: 6

o obj95
v -16.05848122 0.25 -11.5
v -19.89181519 -0.25 -0
v -16.05848122 -0.25 -11.5
v -19.89181519 0.25 -0
usemtl mat0
f 385 386 387
f 386 385 388
# Vertices: 4, normals: 0, texture coordinates: 0, faces: 2

o obj96
v -19.89181519 -0.25 -0
v -22 0.25 -0
v -22 -0.25 -0
v -19.89181519 0.25 -0
usemtl mat0
f 389 390 391
f 390 389 392
# Vertices: 4, normals: 0, texture coordinates: 0, faces: 2

o obj97
v -22 0.25 -0
v -17.5 -0.25 -13.5
v -22 -0.25 -0
v -17.5 0.25 -13.5
usemtl mat0
f 393 394 395
f 394 393 396
# Vertices: 4, normals: 0, texture coordinates: 0, faces: 2

o obj98
v 17.5 0.25 -13.5
v -17.5 -0.25 -13.5
v -17.5 0.25 -13.5
v 17.5 -0.25 -13.5
usemtl mat0
f 397 398 399
f 398 397 400
# Vertices: 4, normals: 0, texture coordinates: 0, faces: 2

o obj99
v 17.5 0.25 -13.5
v 22 -0.25 -0
v 17.5 -0.25 -13.5
v 22 0.25 -0
usemtl mat0
f 401 402 403
f 402 401 404
# Vertices: 4, normals: 0, texture coordinates: 0, faces: 2

o obj100
v 22 -0.25 -0
v 19.89181519 0.25 -0
v 19.89181519 -0.25 -0
v 22 0.25 -0
usemtl mat0
f 405 406 407
f 406 405 408
# Vertices: 4, normals: 0, texture coordinates: 0, faces: 2

o obj101
v 19.89181519 0.25 -0
v 16.05848122 -0.25 -11.5
v 19.89181519 -0.25 -0
v 16.05848122 0.25 -11.5
usemtl mat0
f 409 410 411
f 410 409 412
# Vertices: 4, normals: 0, texture coordinates: 0, faces: 2

o obj102
v 16.05848122 -0.25 -11.5
v -16.05848122 0.25 -11.5
v -16.05848122 -0.25 -11.5
v 16.05848122 0.25 -11.5
usemtl mat0
f 413 414 415
f 414 413 416
# Vertices: 4, normals: 0, texture coordinates: 0, faces: 2

o obj103
v -21.72914314 -3.44155812 -1.25
v -21.72914314 3.44155812 -1.25
v -22 0 -1.25
v -21.49845314 0 -1.25
v -21.23377228 -3.3630991 -1.25
v -20.92324257 -6.7983737 -1.25
v -20.44624519 -6.64338779 -1.25
v -19.60214424 -9.98779106 -1.25
v -19.15526199 -9.76009369 -1.25
v -17.79837418 -12.93127537 -1.25
v -17.39261436 -12.63647461 -1.25
v -15.5563488 -15.5563488 -1.25
v -15.20170212 -15.20170212 -1.25
v -12.93127537 -17.79837418 -1.25
v -12.63647461 -17.39261436 -1.25
v -9.98779106 -19.60214424 -1.25
v -9.76009369 -19.15526199 -1.25
v -6.7983737 -20.92324257 -1.25
v -6.64338779 -20.44624519 -1.25
v -3.44155812 -21.72914314 -1.25
v -3.3630991 -21.23377228 -1.25
v 0 -22 -1.25
v 0 -21.49845314 -1.25
v 3.44155812 -21.72914314 -1.25
v 3.3630991 -21.23377228 -1.25
v 6.64338779 -20.44624519 -1.25
v 6.7983737 -20.92324257 -1.25
v 9.76009369 -19.15526199 -1.25
v 9.98779106 -19.60214424 -1.25
v 12.63647461 -17.39261436 -1.25
v 12.93127537 -17.79837418 -1.25
v 15.20170212 -15.20170212 -1.25
v 15.5563488 -15.5563488 -1.25
v 17.39261436 -12.63647461 -1.25
v 17.79837418 -12.93127537 -1.25
v 19.15526199 -9.76009369 -1.25
v 19.60214424 -9.98779106 -1.25
v 20.44624519 -6.64338779 -1.25
v 20.92324257 -6.7983737 -1.25
v 21.23377228 -3.3630991 -1.25
v 21.72914314 -3.44155812 -1.25
v 21.49845314 -0 -1.25
v -21.23377228 3.3630991 -1.25
v -20.92324257 6.7983737 -1.25
v -20.44624519 6.64338779 -1.25
v -19.60214424 9.98779106 -1.25
v -19.15526199 9.76009369 -1.25
v -17.79837418 12.93127537 -1.25
v -17.39261436 12.63647461 -1.25
v -15.5563488 15.5563488 -1.25
v -15.20170212 15.20170212 -1.25
v -12.93127537 17.79837418 -1.25
v -12.63647461 17.39261436 -1.25
v -9.98779106 19.60214424 -1.25
v -9.76009369 19.15526199 -1.25
v -6.7983737 20.92324257 -1.25
v -6.64338779 20.44624519 -1.25
v -3.44155812 21.72914314 -1.25
v -3.3630991 21.23377228 -1.25
v 0 22 -1.25
v 0 21.49845314 -1.25
v 3.3630991 21.23377228 -1.25
v 3.44155812 21.72914314 -1.25
v 6.64338779 20.44624519 -1.25
v 6.7983737 20.92324257 -1.25
v 9.76009369 19.15526199 -1.25
v 9.98779106 19.60214424 -1.25
v 12.63647461 17.39261436 -1.25
v 12.93127537 17.79837418 -1.25
v 15.20170212 15.20170212 -1.25
v 15.5563488 15.5563488 -1.25
v 17.39261436 12.63647461 -1.25
v 17.79837418 12.93127537 -1.25
v 19.15526199 9.76009369 -1.25
v 19.60214424 9.98779106 -1.25
v 20.44624519 6.64338779 -1.25
v 20.92324257 6.7983737 -1.25
v 21.23377228 3.3630991 -1.25
v 21.72914314 3.44155812 -1.25
v 22 -0 -1.25
usemtl mat0
f 417 418 419
f 418 417 420
f 420 417 421
f 421 417 422
f 421 422 423
f 423 422 424
f 423 424 425
f 425 424 426
f 425 426 427
f 427 426 428
f 427 428 429
f 429 428 430
f 429 430 431
f 431 430 432
f 431 432 433
f 433 432 434
f 433 434 435
f 435 434 436
f 435 436 437
f 437 436 438
f 437 438 439
f 439 438 440
f 439 440 441
f 441 440 442
f 442 440 443
f 442 443 444
f 444 443 445
f 444 445 446
f 446 445 447
f 446 447 448
f 448 447 449
f 448 449 450
f 450 449 451
f 450 451 452
f 452 451 453
f 452 453 454
f 454 453 455
f 454 455 456
f 456 455 457
f 456 457 458
f 418 459 460
f 459 418 420
f 460 459 461
f 460 461 462
f 462 461 463
f 462 463 464
f 464 463 465
f 464 465 466
f 466 465 467
f 466 467 468
f 468 467 469
f 468 469 470
f 470 469 471
f 470 471 472
f 472 471 473
f 472 473 474
f 474 473 475
f 474 475 476
f 476 475 477
f 476 477 478
f 476 478 479
f 479 478 480
f 479 480 481
f 481 480 482
f 481 482 483
f 483 482 484
f 483 484 485
f 485 484 486
f 485 486 487
f 487 486 488
f 487 488 489
f 489 488 490
f 489 490 491
f 491 490 492
f 491 492 493
f 493 492 494
f 493 494 495
f 495 494 458
f 495 458 457
f 495 457 496
# Vertices: 80, normals: 0, texture coordinates: 0, faces: 80

o obj104
v -21.72914314 3.44155812 -2
v -21.72914314 -3.44155812 -2
v -22 0 -2
v -21.49845314 0 -2
v -21.23377228 3.3630991 -2
v -20.92324257 6.7983737 -2
v -20.44624519 6.64338779 -2
v -19.60214424 9.98779106 -2
v -19.15526199 9.76009369 -2
v -17.79837418 12.93127537 -2
v -17.39261436 12.63647461 -2
v -15.5563488 15.5563488 -2
v -15.20170212 15.20170212 -2
v -12.93127537 17.79837418 -2
v -12.63647461 17.39261436 -2
v -9.98779106 19.60214424 -2
v -9.76009369 19.15526199 -2
v -6.7983737 20.92324257 -2
v -6.64338779 20.44624519 -2
v -3.44155812 21.72914314 -2
v -3.3630991 21.23377228 -2
v 0 22 -2
v 0 21.49845314 -2
v 3.44155812 21.72914314 -2
v 3.3630991 21.23377228 -2
v 6.64338779 20.44624519 -2
v 6.7983737 20.92324257 -2
v 9.76009369 19.15526199 -2
v 9.98779106 19.60214424 -2
v 12.63647461 17.39261436 -2
v 12.93127537 17.79837418 -2
v 15.20170212 15.20170212 -2
v 15.5563488 15.5563488 -2
v 17.39261436 12.63647461 -2
v 17.79837418 12.93127537 -2
v 19.15526199 9.76009369 -2
v 19.60214424 9.98779106 -2
v 20.44624519 6.64338779 -2
v 20.92324257 6.7983737 -2
v 21.23377228 3.3630991 -2
v 21.72914314 3.44155812 -2
v 21.49845314 -0 -2
v -21.23377228 -3.3630991 -2
v -20.92324257 -6.7983737 -2
v -20.44624519 -6.64338779 -2
v -19.60214424 -9.98779106 -2
v -19.15526199 -9.76009369 -2
v -17.79837418 -12.93127537 -2
v -17.39261436 -12.63647461 -2
v -15.5563488 -15.5563488 -2
v -15.20170212 -15.20170212 -2
v -12.93127537 -17.79837418 -2
v -12.63647461 -17.39261436 -2
v -9.98779106 -19.60214424 -2
v -9.76009369 -19.15526199 -2
v -6.7983737 -20.92324257 -2
v -6.64338779 -20.44624519 -2
v -3.44155812 -21.72914314 -2
v -3.3630991 -21.23377228 -2
v 0 -22 -2
v 0 -21.49845314 -2
v 3.3630991 -21.23377228 -2
v 3.44155812 -21.72914314 -2
v 6.64338779 -20.44624519 -2
v 6.7983737 -20.92324257 -2
v 9.76009369 -19.15526199 -2
v 9.98779106 -19.60214424 -2
v 12.63647461 -17.39261436 -2
v 12.93127537 -17.79837418 -2
v 15.20170212 -15.20170212 -2
v 15.5563488 -15.5563488 -2
v 17.39261436 -12.63647461 -2
v 17.79837418 -12.93127537 -2
v 19.15526199 -9.76009369 -2
v 19.60214424 -9.98779106 -2
v 20.44624519 -6.64338779 -2
v 20.92324257 -6.7983737 -2
v 21.23377228 -3.3630991 -2
v 21.72914314 -3.44155812 -2
v 22 -0 -2
usemtl mat0
f 497 498 499
f 498 497 500
f 500 497 501
f 501 497 502
f 501 502 503
f 503 502 504
f 503 504 505
f 505 504 506
f 505 506 507
f 507 506 508
f 507 508 509
f 509 508 510
f 509 510 511
f 511 510 512
f 511 512 513
f 513 512 514
f 513 514 515
f 515 514 516
f 515 516 517
f 517 516 518
f 517 518 519
f 519 518 520
f 519 520 521
f 521 520 522
f 522 520 523
f 522 523 524
f 524 523 525
f 524 525 526
f 526 525 527
f 526 527 528
f 528 527 529
f 528 529 530
f 530 529 531
f 530 531 532
f 532 531 533
f 532 533 534
f 534 533 535
f 534 535 536
f 536 535 537
f 536 537 538
f 498 539 540
f 539 498 500
f 540 539 541
f 540 541 542
f 542 541 543
f 542 543 544
f 544 543 545
f 544 545 546
f 546 545 547
f 546 547 548
f 548 547 549
f 548 549 550
f 550 549 551
f 550 551 552
f 552 551 553
f 552 553 554
f 554 553 555
f 554 555 556
f 556 555 557
f 556 557 558
f 556 558 559
f 559 558 560
f 559 560 561
f 561 560 562
f 561 562 563
f 563 562 564
f 563 564 565
f 565 564 566
f 565 566 567
f 567 566 568
f 567 568 569
f 569 568 570
f 569 570 571
f 571 570 572
f 571 572 573
f 573 572 574
f 573 574 575
f 575 574 538
f 575 538 537
f 575 537 576
# Vertices: 80, normals: 0, texture coordinates: 0, faces: 80

o obj105
v -15.5563488 15.5563488 -1.25
v -17.79837418 12.93127537 -2
v -17.79837418 12.93127537 -1.25
v -15.5563488 15.5563488 -2
usemtl mat0
f 577 578 579
f 578 577 580
# Vertices: 4, normals: 0, texture coordinates: 0, faces: 2

o obj106
v -15.5563488 15.5563488 -1.25
v -12.93127537 17.79837418 -2
v -15.5563488 15.5563488 -2
v -12.93127537 17.79837418 -1.25
usemtl mat0
f 581 582 583
f 582 581 584
# Vertices: 4, normals: 0, texture coordinates: 0, faces: 2

o obj107
v -12.93127537 17.79837418 -1.25
v -9.98779106 19.60214424 -2
v -12.93127537 17.79837418 -2
v -9.98779106 19.60214424 -1.25
usemtl mat0
f 585 586 587
f 586 585 588
# Vertices: 4, normals: 0, texture coordinates: 0, faces: 2

o obj108
v -9.98779106 19.60214424 -1.25
v -6.7983737 20.92324257 -2
v -9.98779106 19.60214424 -2
v -6.7983737 20.92324257 -1.25
usemtl mat0
f 589 590 591
f 590 589 592
# Vertices: 4, normals: 0, texture coordinates: 0, faces: 2

o obj109
v -6.7983737 20.92324257 -1.25
v -3.44155812 21.72914314 -2
v -6.7983737 20.92324257 -2
v -3.44155812 21.72914314 -1.25
usemtl mat0
f 593 594 595
f 594 593 596
# Vertices: 4, normals: 0, texture coordinates: 0, faces: 2

o obj110
v -3.44155812 21.72914314 -1.25
v 0 22 -2
v -3.44155812 21.72914314 -2
v 0 22 -1.25
usemtl mat0
f 597 598 599
f 598 597 600
# Vertices: 4, normals: 0, texture coordinates: 0, faces: 2

o obj111
v 0 22 -1.25
v 3.44155812 21.72914314 -2
v 0 22 -2
v 3.44155812 21.72914314 -1.25
usemtl mat0
f 601 602 603
f 602 601 604
# Vertices: 4, normals: 0, texture coordinates: 0, faces: 2

o obj112
v 3.44155812 21.72914314 -1.25
v 6.7983737 20.92324257 -2
v 3.44155812 21.72914314 -2
v 6.7983737 20.92324257 -1.25
usemtl mat0
f 605 606 607
f 606 605 608
# Vertices: 4, normals: 0, texture coordinates: 0, faces: 2

o obj113
v 6.7983737 20.92324257 -1.25
v 9.98779106 19.60214424 -2
v 6.7983737 20.92324257 -2
v 9.98779106 19.60214424 -1.25
usemtl mat0
f 609 610 611
f 610 609 612
# Vertices: 4, normals: 0, texture coordinates: 0, faces: 2

o obj114
v 9.98779106 19.60214424 -1.25
v 12.93127537 17.79837418 -2
v 9.98779106 19.60214424 -2
v 12.93127537 17.79837418 -1.25
usemtl mat0
f 613 614 615
f 614 613 616
# Vertices: 4, normals: 0, texture coordinates: 0, faces: 2

o obj115
v 12.93127537 17.79837418 -1.25
v 15.5563488 15.5563488 -2
v 12.93127537 17.79837418 -2
v 15.5563488 15.5563488 -1.25
usemtl mat0
f 617 618 619
f 618 617 620
# Vertices: 4, normals: 0, texture coordinates: 0, faces: 2

o obj116
v 15.5563488 15.5563488 -2
v 17.79837418 12.93127537 -1.25
v 17.79837418 12.93127537 -2
v 15.5563488 15.5563488 -1.25
usemtl mat0
f 621 622 623
f 622 621 624
# Vertices: 4, normals: 0, texture coordinates: 0, faces: 2

o obj117
v 17.79837418 12.93127537 -2
v 19.60214424 9.98779106 -1.25
v 19.60214424 9.98779106 -2
v 17.79837418 12.93127537 -1.25
usemtl mat0
f 625 626 627
f 626 625 628
# Vertices: 4, normals: 0, texture coordinates: 0, faces: 2

o obj118
v 19.60214424 9.98779106 -2
v 20.92324257 6.7983737 -1.25
v 20.92324257 6.7983737 -2
v 19.60214424 9.98779106 -1.25
usemtl mat0
f 629 630 631
f 630 629 632
# Vertices: 4, normals: 0, texture coordinates: 0, faces: 2

o obj119
v 20.92324257 6.7983737 -2
v 21.72914314 3.44155812 -1.25
v 21.72914314 3.44155812 -2
v 20.92324257 6.7983737 -1.25
usemtl mat0
f 633 634 635
f 634 633 636
# Vertices: 4, normals: 0, texture coordinates: 0, faces: 2

o obj120
v 21.72914314 3.44155812 -2
v 22 -0 -1.25
v 22 -0 -2
v 21.72914314 3.44155812 -1.25
usemtl mat0
f 637 638 639
f 638 637 640
# Vertices: 4, normals: 0, texture coordinates: 0, faces: 2

o obj121
v 22 -0 -2
v 21.72914314 -3.44155812 -1.25
v 21.72914314 -3.44155812 -2
v 22 -0 -1.25
usemtl mat0
f 641 642 643
f 642 641 644
# Vertices: 4, normals: 0, texture coordinates: 0, faces: 2

o obj122
v 21.72914314 -3.44155812 -2
v 20.92324257 -6.7983737 -1.25
v 20.92324257 -6.7983737 -2
v 21.72914314 -3.44155812 -1.25
usemtl mat0
f 645 646 647
f 646 645 648
# Vertices: 4, normals: 0, texture coordinates: 0, faces: 2

o obj123
v 20.92324257 -6.7983737 -2
v 19.60214424 -9.98779106 -1.25
v 19.60214424 -9.98779106 -2
v 20.92324257 -6.7983737 -1.25
usemtl mat0
f 649 650 651
f 650 649 652
# Vertices: 4, normals: 0, texture coordinates: 0, faces: 2

o obj124
v 19.60214424 -9.98779106 -2
v 17.79837418 -12.93127537 -1.25
v 17.79837418 -12.93127537 -2
v 19.60214424 -9.98779106 -1.25
usemtl mat0
f 653 654 655
f 654 653 656
# Vertices: 4, normals: 0, texture coordinates: 0, faces: 2

o obj125
v 17.79837418 -12.93127537 -2
v 15.5563488 -15.5563488 -1.25
v 15.5563488 -15.5563488 -2
v 17.79837418 -12.93127537 -1.25
usemtl mat0
f 657 658 659
f 658 657 660
# Vertices: 4, normals: 0, texture coordinates: 0, faces: 2

o obj126
v 15.5563488 -15.5563488 -1.25
v 12.93127537 -17.79837418 -2
v 15.5563488 -15.5563488 -2
v 12.93127537 -17.79837418 -1.25
usemtl mat0
f 661 662 663
f 662 661 664
# Vertices: 4, normals: 0, texture coordinates: 0, faces: 2

o obj127
v 12.93127537 -17.79837418 -1.25
v 9.98779106 -19.60214424 -2
v 12.93127537 -17.79837418 -2
v 9.98779106 -19.60214424 -1.25
usemtl mat0
f 665 666 667
f 666 665 668
# Vertices: 4, normals: 0, texture coordinates: 0, faces: 2

o obj128
v 9.98779106 -19.60214424 -1.25
v 6.7983737 -20.92324257 -2
v 9.98779106 -19.60214424 -2
v 6.7983737 -20.92324257 -1.25
usemtl mat0
f 669 670 671
f 670 669 672
# Vertices: 4, normals: 0, texture coordinates: 0, faces: 2

o obj129
v 6.7983737 -20.92324257 -1.25
v 3.44155812 -21.72914314 -2
v 6.7983737 -20.92324257 -2
v 3.44155812 -21.72914314 -1.25
usemtl mat0
f 673 674 675
f 674 673 676
# Vertices: 4, normals: 0, texture coordinates: 0, faces: 2

o obj130
v 3.44155812 -21.72914314 -1.25
v 0 -22 -2
v 3.44155812 -21.72914314 -2
v 0 -22 -1.25
usemtl mat0
f 677 678 679
f 678 677 680
# Vertices: 4, normals: 0, texture coordinates: 0, faces: 2

o obj131
v 0 -22 -1.25
v -3.44155812 -21.72914314 -2
v 0 -22 -2
v -3.44155812 -21.72914314 -1.25
usemtl mat0
f 681 682 683
f 682 681 684
# Vertices: 4, normals: 0, texture coordinates: 0, faces: 2

o obj132
v -3.44155812 -21.72914314 -1.25
v -6.7983737 -20.92324257 -2
v -3.44155812 -21.72914314 -2
v -6.7983737 -20.92324257 -1.25
usemtl mat0
f 685 686 687
f 686 685 688
# Vertices: 4, normals: 0, texture coordinates: 0, faces: 2

o obj133
v -6.7983737 -20.92324257 -1.25
v -9.98779106 -19.60214424 -2
v -6.7983737 -20.92324257 -2
v -9.98779106 -19.60214424 -1.25
usemtl mat0
f 689 690 691
f 690 689 692
# Vertices: 4, normals: 0, texture coordinates: 0, faces: 2

o obj134
v -9.98779106 -19.60214424 -1.25
v -12.93127537 -17.79837418 -2
v -9.98779106 -19.60214424 -2
v -12.93127537 -17.79837418 -1.25
usemtl mat0
f 693 694 695
f 694 693 696
# Vertices: 4, normals: 0, texture coordinates: 0, faces: 2

o obj135
v -12.93127537 -17.79837418 -1.25
v -15.5563488 -15.5563488 -2
v -12.93127537 -17.79837418 -2
v -15.5563488 -15.5563488 -1.25
usemtl mat0
f 697 698 699
f 698 697 700
# Vertices: 4, normals: 0, texture coordinates: 0, faces: 2

o obj136
v -17.79837418 -12.93127537 -1.25
v -15.5563488 -15.5563488 -2
v -15.5563488 -15.5563488 -1.25
v -17.79837418 -12.93127537 -2
usemtl mat0
f 701 702 703
f 702 701 704
# Vertices: 4, normals: 0, texture coordinates: 0, faces: 2

o obj137
v -19.60214424 -9.98779106 -1.25
v -17.79837418 -12.93127537 -2
v -17.79837418 -12.93127537 -1.25
v -19.60214424 -9.98779106 -2
usemtl mat0
f 705 706 707
f 706 705 708
# Vertices: 4, normals: 0, texture coordinates: 0, faces: 2

o obj138
v -20.92324257 -6.7983737 -1.25
v -19.60214424 -9.98779106 -2
v -19.60214424 -9.98779106 -1.25
v -20.92324257 -6.7983737 -2
usemtl mat0
f 709 710 711
f 710 709 712
# Vertices: 4, normals: 0, texture coordinates: 0, faces: 2

o obj139
v -21.72914314 -3.44155812 -1.25
v -20.92324257 -6.7983737 -2
v -20.92324257 -6.7983737 -1.25
v -21.72914314 -3.44155812 -2
usemtl mat0
f 713 714 715
f 714 713 716
# Vertices: 4, normals: 0, texture coordinates: 0, faces: 2

o obj140
v -22 0 -1.25
v -21.72914314 -3.44155812 -2
v -21.72914314 -3.44155812 -1.25
v -22 0 -2
usemtl mat0
f 717 718 719
f 718 717 720
# Vertices: 4, normals: 0, texture coordinates: 0, faces: 2

o obj141
v -21.72914314 3.44155812 -1.25
v -22 0 -2
v -22 0 -1.25
v -21.72914314 3.44155812 -2
usemtl mat0
f 721 722 723
f 722 721 724
# Vertices: 4, normals: 0, texture coordinates: 0, faces: 2

o obj142
v -20.92324257 6.7983737 -1.25
v -21.72914314 3.44155812 -2
v -21.72914314 3.44155812 -1.25
v -20.92324257 6.7983737 -2
usemtl mat0
f 725 726 727
f 726 725 728
# Vertices: 4, normals: 0, texture coordinates: 0, faces: 2

o obj143
v -19.60214424 9.98779106 -1.25
v -20.92324257 6.7983737 -2
v -20.92324257 6.7983737 -1.25
v -19.60214424 9.98779106 -2
usemtl mat0
f 729 730 731
f 730 729 732
# Vertices: 4, normals: 0, texture coordinates: 0, faces: 2

o obj144
v -17.79837418 12.93127537 -1.25
v -19.60214424 9.98779106 -2
v -19.60214424 9.98779106 -1.25
v -17.79837418 12.93127537 -2
usemtl mat0
f 733 734 735
f 734 733 736
# Vertices: 4, normals: 0, texture coordinates: 0, faces: 2

o obj145
v -21.49845314 0 -2
v -21.23377228 -3.3630991 -1.25
v -21.23377228 -3.3630991 -2
v -21.49845314 0 -1.25
usemtl mat0
f 737 738 739
f 738 737 740
# Vertices: 4, normals: 0, texture coordinates: 0, faces: 2

o obj146
v -21.23377228 -3.3630991 -2
v -20.44624519 -6.64338779 -1.25
v -20.44624519 -6.64338779 -2
v -21.23377228 -3.3630991 -1.25
usemtl mat0
f 741 742 743
f 742 741 744
# Vertices: 4, normals: 0, texture coordinates: 0, faces: 2

o obj147
v -20.44624519 -6.64338779 -2
v -19.15526199 -9.76009369 -1.25
v -19.15526199 -9.76009369 -2
v -20.44624519 -6.64338779 -1.25
usemtl mat0
f 745 746 747
f 746 745 748
# Vertices: 4, normals: 0, texture coordinates: 0, faces: 2

o obj148
v -19.15526199 -9.76009369 -2
v -17.39261436 -12.63647461 -1.25
v -17.39261436 -12.63647461 -2
v -19.15526199 -9.76009369 -1.25
usemtl mat0
f 749 750 751
f 750 749 752
# Vertices: 4, normals: 0, texture coordinates: 0, faces: 2

o obj149
v -17.39261436 -12.63647461 -2
v -15.20170212 -15.20170212 -1.25
v -15.20170212 -15.20170212 -2
v -17.39261436 -12.63647461 -1.25
usemtl mat0
f 753 754 755
f 754 753 756
# Vertices: 4, normals: 0, texture coordinates: 0, faces: 2

o obj150
v -15.20170212 -15.20170212 -1.25
v -12.63647461 -17.39261436 -2
v -15.20170212 -15.20170212 -2
v -12.63647461 -17.39261436 -1.25
usemtl mat0
f 757 758 759
f 758 757 760
# Vertices: 4, normals: 0, texture coordinates: 0, faces: 2

o obj151
v -12.63647461 -17.39261436 -1.25
v -9.76009369 -19.15526199 -2
v -12.63647461 -17.39261436 -2
v -9.76009369 -19.15526199 -1.25
usemtl mat0
f 761 762 763
f 762 761 764
# Vertices: 4, normals: 0, texture coordinates: 0, faces: 2

o obj152
v -9.76009369 -19.15526199 -1.25
v -6.64338779 -20.44624519 -2
v -9.76009369 -19.15526199 -2
v -6.64338779 -20.44624519 -1.25
usemtl mat0
f 765 766 767
f 766 765 768
# Vertices: 4, normals: 0, texture coordinates: 0, faces: 2

o obj153
v -6.64338779 -20.44624519 -1.25
v -3.3630991 -21.23377228 -2
v -6.64338779 -20.44624519 -2
v -3.3630991 -21.23377228 -1.25
usemtl mat0
f 769 770 771
f 770 769 772
# Vertices: 4, normals: 0, texture coordinates: 0, faces: 2

o obj154
v -3.3630991 -21.23377228 -1.25
v 0 -21.49845314 -2
v -3.3630991 -21.23377228 -2
v 0 -21.49845314 -1.25
usemtl mat0
f 773 774 775
f 774 773 776
# Vertices: 4, normals: 0, texture coordinates: 0, faces: 2

o obj155
v 0 -21.49845314 -1.25
v 3.3630991 -21.23377228 -2
v 0 -21.49845314 -2
v 3.3630991 -21.23377228 -1.25
usemtl mat0
f 777 778 779
f 778 777 780
# Vertices: 4, normals: 0, texture coordinates: 0, faces: 2

o obj156
v 3.3630991 -21.23377228 -1.25
v 6.64338779 -20.44624519 -2
v 3.3630991 -21.23377228 -2
v 6.64338779 -20.44624519 -1.25
usemtl mat0
f 781 782 783
f 782 781 784
# Vertices: 4, normals: 0, texture coordinates: 0, faces: 2

o obj157
v 6.64338779 -20.44624519 -1.25
v 9.76009369 -19.15526199 -2
v 6.64338779 -20.44624519 -2
v 9.76009369 -19.15526199 -1.25
usemtl mat0
f 785 786 787
f 786 785 788
# Vertices: 4, normals: 0, texture coordinates: 0, faces: 2

o obj158
v 9.76009369 -19.15526199 -1.25
v 12.63647461 -17.39261436 -2
v 9.76009369 -19.15526199 -2
v 12.63647461 -17.39261436 -1.25
usemtl mat0
f 789 790 791
f 790 789 792
# Vertices: 4, normals: 0, texture coordinates: 0, faces: 2

o obj159
v 12.63647461 -17.39261436 -1.25
v 15.20170212 -15.20170212 -2
v 12.63647461 -17.39261436 -2
v 15.20170212 -15.20170212 -1.25
usemtl mat0
f 793 794 795
f 794 793 796
# Vertices: 4, normals: 0, texture coordinates: 0, faces: 2

o obj160
v 17.39261436 -12.63647461 -1.25
v 15.20170212 -15.20170212 -2
v 15.20170212 -15.20170212 -1.25
v 17.39261436 -12.63647461 -2
usemtl mat0
f 797 798 799
f 798 797 800
# Vertices: 4, normals: 0, texture coordinates: 0, faces: 2

o obj161
v 19.15526199 -9.76009369 -1.25
v 17.39261436 -12.63647461 -2
v 17.39261436 -12.63647461 -1.25
v 19.15526199 -9.76009369 -2
usemtl mat0
f 801 802 803
f 802 801 804
# Vertices: 4, normals: 0, texture coordinates: 0, faces: 2

o obj162
v 20.44624519 -6.64338779 -1.25
v 19.15526199 -9.76009369 -2
v 19.15526199 -9.76009369 -1.25
v 20.44624519 -6.64338779 -2
usemtl mat0
f 805 806 807
f 806 805 808
# Vertices: 4, normals: 0, texture coordinates: 0, faces: 2

o obj163
v 21.23377228 -3.3630991 -1.25
v 20.44624519 -6.64338779 -2
v 20.44624519 -6.64338779 -1.25
v 21.23377228 -3.3630991 -2
usemtl mat0
f 809 810 811
f 810 809 812
# Vertices: 4, normals: 0, texture coordinates: 0, faces: 2

o obj164
v 21.49845314 -0 -1.25
v 21.23377228 -3.3630991 -2
v 21.23377228 -3.3630991 -1.25
v 21.49845314 -0 -2
usemtl mat0
f 813 814 815
f 814 813 816
# Vertices: 4, normals: 0, texture coordinates: 0, faces: 2

o obj165
v 21.23377228 3.3630991 -1.25
v 21.49845314 -0 -2
v 21.49845314 -0 -1.25
v 21.23377228 3.3630991 -2
usemtl mat0
f 817 818 819
f 818 817 820
# Vertices: 4, normals: 0, texture coordinates: 0, faces: 2

o obj166
v 20.44624519 6.64338779 -1.25
v 21.23377228 3.3630991 -2
v 21.23377228 3.3630991 -1.25
v 20.44624519 6.64338779 -2
usemtl mat0
f 821 822 823
f 822 821 824
# Vertices: 4, normals: 0, texture coordinates: 0, faces: 2

o obj167
v 19.15526199 9.76009369 -1.25
v 20.44624519 6.64338779 -2
v 20.44624519 6.64338779 -1.25
v 19.15526199 9.76009369 -2
usemtl mat0
f 825 826 827
f 826 825 828
# Vertices: 4, normals: 0, texture coordinates: 0, faces: 2

o obj168
v 17.39261436 12.63647461 -1.25
v 19.15526199 9.76009369 -2
v 19.15526199 9.76009369 -1.25
v 17.39261436 12.63647461 -2
usemtl mat0
f 829 830 831
f 830 829 832
# Vertices: 4, normals: 0, texture coordinates: 0, faces: 2

o obj169
v 15.20170212 15.20170212 -1.25
v 17.39261436 12.63647461 -2
v 17.39261436 12.63647461 -1.25
v 15.20170212 15.20170212 -2
usemtl mat0
f 833 834 835
f 834 833 836
# Vertices: 4, normals: 0, texture coordinates: 0, faces: 2

o obj170
v 15.20170212 15.20170212 -1.25
v 12.63647461 17.39261436 -2
v 15.20170212 15.20170212 -2
v 12.63647461 17.39261436 -1.25
usemtl mat0
f 837 838 839
f 838 837 840
# Vertices: 4, normals: 0, texture coordinates: 0, faces: 2

o obj171
v 12.63647461 17.39261436 -1.25
v 9.76009369 19.15526199 -2
v 12.63647461 17.39261436 -2
v 9.76009369 19.15526199 -1.25
usemtl mat0
f 841 842 843
f 842 841 844
# Vertices: 4, normals: 0, texture coordinates: 0, faces: 2

o obj172
v 9.76009369 19.15526199 -1.25
v 6.64338779 20.44624519 -2
v 9.76009369 19.15526199 -2
v 6.64338779 20.44624519 -1.25
usemtl mat0
f 845 846 847
f 846 845 848
# Vertices: 4, normals: 0, texture coordinates: 0, faces: 2

o obj173
v 6.64338779 20.44624519 -1.25
v 3.3630991 21.23377228 -2
v 6.64338779 20.44624519 -2
v 3.3630991 21.23377228 -1.25
usemtl mat0
f 849 850 851
f 850 849 852
# Vertices: 4, normals: 0, texture coordinates: 0, faces: 2

o obj174
v 3.3630991 21.23377228 -1.25
v 0 21.49845314 -2
v 3.3630991 21.23377228 -2
v 0 21.49845314 -1.25
usemtl mat0
f 853 854 855
f 854 853 856
# Vertices: 4, normals: 0, texture coordinates: 0, faces: 2

o obj175
v 0 21.49845314 -1.25
v -3.3630991 21.23377228 -2
v 0 21.49845314 -2
v -3.3630991 21.23377228 -1.25
usemtl mat0
f 857 858 859
f 858 857 860
# Vertices: 4, normals: 0, texture coordinates: 0, faces: 2

o obj176
v -3.3630991 21.23377228 -1.25
v -6.64338779 20.44624519 -2
v -3.3630991 21.23377228 -2
v -6.64338779 20.44624519 -1.25
usemtl mat0
f 861 862 863
f 862 861 864
# Vertices: 4, normals: 0, texture coordinates: 0, faces: 2

o obj177
v -6.64338779 20.44624519 -1.25
v -9.76009369 19.15526199 -2
v -6.64338779 20.44624519 -2
v -9.76009369 19.15526199 -1.25
usemtl mat0
f 865 866 867
f 866 865 868
# Vertices: 4, normals: 0, texture coordinates: 0, faces: 2

o obj178
v -9.76009369 19.15526199 -1.25
v -12.63647461 17.39261436 -2
v -9.76009369 19.15526199 -2
v -12.63647461 17.39261436 -1.25
usemtl mat0
f 869 870 871
f 870 869 872
# Vertices: 4, normals: 0, texture coordinates: 0, faces: 2

o obj179
v -12.63647461 17.39261436 -1.25
v -15.20170212 15.20170212 -2
v -12.63647461 17.39261436 -2
v -15.20170212 15.20170212 -1.25
usemtl mat0
f 873 874 875
f 874 873 876
# Vertices: 4, normals: 0, texture coordinates: 0, faces: 2

o obj180
v -15.20170212 15.20170212 -2
v -17.39261436 12.63647461 -1.25
v -17.39261436 12.63647461 -2
v -15.20170212 15.20170212 -1.25
usemtl mat0
f 877 878 879
f 878 877 880
# Vertices: 4, normals: 0, texture coordinates: 0, faces: 2

o obj181
v -17.39261436 12.63647461 -2
v -19.15526199 9.76009369 -1.25
v -19.15526199 9.76009369 -2
v -17.39261436 12.63647461 -1.25
usemtl mat0
f 881 882 883
f 882 881 884
# Vertices: 4, normals: 0, texture coordinates: 0, faces: 2

o obj182
v -19.15526199 9.76009369 -2
v -20.44624519 6.64338779 -1.25
v -20.44624519 6.64338779 -2
v -19.15526199 9.76009369 -1.25
usemtl mat0
f 885 886 887
f 886 885 888
# Vertices: 4, normals: 0, texture coordinates: 0, faces: 2

o obj183
v -20.44624519 6.64338779 -2
v -21.23377228 3.3630991 -1.25
v -21.23377228 3.3630991 -2
v -20.44624519 6.64338779 -1.25
usemtl mat0
f 889 890 891
f 890 889 892
# Vertices: 4, normals: 0, texture coordinates: 0, faces: 2

o obj184
v -21.23377228 3.3630991 -2
v -21.49845314 0 -1.25
v -21.49845314 0 -2
v -21.23377228 3.3630991 -1.25
usemtl mat0
f 893 894 895
f 894 893 896
# Vertices: 4, normals: 0, texture coordinates: 0, faces: 2

o obj185
v -14.99958706 -15.35313988 -0
v 15.00167656 15.35522938 -0
v -15.35313988 -14.99958706 -0
v 15.35522938 15.00167656 -0
usemtl mat0
f 897 898 899
f 898 897 900
# Vertices: 4, normals: 0, texture coordinates: 0, faces: 2

o obj186
v 15.35522938 15.00167656 -2
v -15.35313988 -14.99958706 -2
v 15.00167656 15.35522938 -2
v -14.99958706 -15.35313988 -2
usemtl mat0
f 901 902 903
f 902 901 904
# Vertices: 4, normals: 0, texture coordinates: 0, faces: 2

o obj187
v -14.99958706 -15.35313988 -0
v -15.35313988 -14.99958706 -2
v -14.99958706 -15.35313988 -2
v -15.35313988 -14.99958706 -0
usemtl mat0
f 905 906 907
f 906 905 908
# Vertices: 4, normals: 0, texture coordinates: 0, faces: 2

o obj188
v 15.00167656 15.35522938 -0
v -15.35313988 -14.99958706 -2
v -15.35313988 -14.99958706 -0
v 15.00167656 15.35522938 -2
usemtl mat0
f 909 910 911
f 910 909 912
# Vertices: 4, normals: 0, texture coordinates: 0, faces: 2

o obj189
v 15.00167656 15.35522938 -0
v 15.35522938 15.00167656 -2
v 15.00167656 15.35522938 -2
v 15.35522938 15.00167656 -0
usemtl mat0
f 913 914 915
f 914 913 916
# Vertices: 4, normals: 0, texture coordinates: 0, faces: 2

o obj190
v 15.35522938 15.00167656 -2
v -14.99958706 -15.35313988 -0
v -14.99958706 -15.35313988 -2
v 15.35522938 15.00167656 -0
usemtl mat0
f 917 918 919
f 918 917 920
# Vertices: 4, normals: 0, texture coordinates: 0, faces: 2

o obj191
v 14.97140312 -15.32495689 -0
v -14.93134689 15.28489971 -0
v -15.28489971 14.93134689 -0
v 15.32495689 -14.97140312 -0
usemtl mat0
f 921 922 923
f 922 921 924
# Vertices: 4, normals: 0, texture coordinates: 0, faces: 2

o obj192
v -14.93134689 15.28489971 -2
v 14.97140312 -15.32495689 -2
v -15.28489971 14.93134689 -2
v 15.32495689 -14.97140312 -2
usemtl mat0
f 925 926 927
f 926 925 928
# Vertices: 4, normals: 0, texture coordinates: 0, faces: 2

o obj193
v 15.32495689 -14.97140312 -0
v 14.97140312 -15.32495689 -2
v 15.32495689 -14.97140312 -2
v 14.97140312 -15.32495689 -0
usemtl mat0
f 929 930 931
f 930 929 932
# Vertices: 4, normals: 0, texture coordinates: 0, faces: 2

o obj194
v -15.28489971 14.93134689 -0
v 14.97140312 -15.32495689 -2
v 14.97140312 -15.32495689 -0
v -15.28489971 14.93134689 -2
usemtl mat0
f 933 934 935
f 934 933 936
# Vertices: 4, normals: 0, texture coordinates: 0, faces: 2

o obj195
v -15.28489971 14.93134689 -0
v -14.93134689 15.28489971 -2
v -15.28489971 14.93134689 -2
v -14.93134689 15.28489971 -0
usemtl mat0
f 937 938 939
f 938 937 940
# Vertices: 4, normals: 0, texture coordinates: 0, faces: 2

o obj196
v -14.93134689 15.28489971 -2
v 15.32495689 -14.97140312 -0
v 15.32495689 -14.97140312 -2
v -14.93134689 15.28489971 -0
usemtl mat0
f 941 942 943
f 942 941 944
# Vertices: 4, normals: 0, texture coordinates: 0, faces: 2

